<svg width="695" height="709" xmlns="http://www.w3.org/2000/svg" data-name="Layer 1">
 <g>
  <title>Layer 1</title>
  <path d="m623.17994,465.42765c39.6877,-30.22889 58.64352,-81.02546 46.77635,-129.48234q-0.44231,-1.806 -0.93367,-3.6038c-7.86742,-28.76343 -27.33167,-56.10058 -55.7,-65.29129c-23.81971,-7.71694 -49.81962,-1.78274 -74.66936,-4.85149c-48.78136,-6.02417 -86.60057,-45.494 -113.21115,-86.81933c-26.61064,-41.32546 -47.06182,-87.58331 -82.42157,-121.72413c-58.28479,-56.27536 -153.36192,-68.39149 -225.62671,-31.76044c-72.26469,36.63117 -118.29655,117.90037 -116.33342,198.89529c1.96322,80.995 50.04632,158.43176 119.87492,199.517c25.65222,15.093 55.32138,25.78522 84.84826,22.04377c25.62011,-3.24641 48.89908,-17.01264 74.39861,-21.09959c40.09115,-6.42568 79.92687,11.70084 114.60268,32.82375c34.67571,21.12288 68.17007,46.15988 107.57436,55.95242c38.26148,9.5085 85.66368,-17.8218 120.8207,-44.59982z" fill="none" id="svg_1" stroke="#aaaaaa" stroke-width="2" stroke-opacity="0.46"/>
  <path d="m377.31045,709.01526q-3.97494,0.09 -7.98,0.09c-63.43,0 -143.21,-33.87994 -215.61,-80.78q-8.985,-5.82 -17.81,-11.91l5.16,-31.4l156.21,-20.74l78.4,59.95l1.63,84.79z" fill="#2f2e41" id="svg_2"/>
  <path stroke-width="2" stroke="#e6e6e6" d="m384.83039,147.32532l-22.26,0a2.601,2.601 0 0 0 -2.59985,2.59985l0,22.27a2.59264,2.59264 0 0 0 2.59985,2.59009l22.26,0a2.59918,2.59918 0 0 0 2.6001,-2.59009l0,-22.27a2.60761,2.60761 0 0 0 -2.6001,-2.59985z" fill="none" id="svg_3"/>
  <path d="m384.83039,224.22522l-22.26,0a2.60116,2.60116 0 0 0 -2.59985,2.6001l0,22.26a2.59464,2.59464 0 0 0 2.59985,2.59985l22.26,0a2.60116,2.60116 0 0 0 2.6001,-2.59985l0,-22.26a2.60774,2.60774 0 0 0 -2.6001,-2.6001z" fill="#e6e6e6" id="svg_5"/>
  <path d="m387.39045,264.31531a2.61714,2.61714 0 0 0 -2.56006,-2.14014l-22.26,0a2.60124,2.60124 0 0 0 -2.59985,2.6001l0,22.26a2.59474,2.59474 0 0 0 2.59985,2.6l22.26,0a2.60126,2.60126 0 0 0 2.6001,-2.6l0,-22.26a2.31271,2.31271 0 0 0 -0.04004,-0.45996z" fill="#e6e6e6" id="svg_6"/>
  <path d="m385.84045,300.32532a2.634,2.634 0 0 0 -1.01,-0.20008l-22.26,0a2.59475,2.59475 0 0 0 -2.59985,2.6l0,22.26a2.58836,2.58836 0 0 0 2.59985,2.6001l22.26,0a2.60137,2.60137 0 0 0 2.6001,-2.6001l0,-22.26a2.61575,2.61575 0 0 0 -1.5901,-2.39992z" fill="#e6e6e6" id="svg_7"/>
  <path stroke-width="2" stroke="#3badcb" d="m431.59045,147.32532l-22.26,0a2.601,2.601 0 0 0 -2.59985,2.59985l0,22.27a2.59264,2.59264 0 0 0 2.59985,2.59009l22.26,0a2.59918,2.59918 0 0 0 2.6001,-2.59009l0,-22.27a2.60761,2.60761 0 0 0 -2.6001,-2.59985z" fill="none" id="svg_8"/>
  <path stroke-width="2" stroke="#3badcb" d="m431.59045,223.22522l-22.26,0a2.60116,2.60116 0 0 0 -2.59985,2.6001l0,22.26a2.59464,2.59464 0 0 0 2.59985,2.59985l22.26,0a2.60116,2.60116 0 0 0 2.6001,-2.59985l0,-22.26a2.60774,2.60774 0 0 0 -2.6001,-2.6001z" fill="none" id="svg_10"/>
  <path stroke-width="2" stroke="#e6e6e6" d="m431.59045,262.17517l-22.26,0a2.59261,2.59261 0 0 0 -2.46,1.78a2.47846,2.47846 0 0 0 -0.13989,0.82007l0,22.26a2.59474,2.59474 0 0 0 2.59985,2.6l22.26,0a2.60126,2.60126 0 0 0 2.6001,-2.6l0,-22.26a2.60782,2.60782 0 0 0 -2.60006,-2.60007z" fill="none" id="svg_11"/>
  <path d="m431.59045,300.12524l-22.26,0a2.59475,2.59475 0 0 0 -2.59985,2.6l0,22.26a2.59485,2.59485 0 0 0 2.59985,2.6001l22.26,0a2.60137,2.60137 0 0 0 2.6001,-2.6001l0,-22.26a2.60127,2.60127 0 0 0 -2.6001,-2.6z" fill="#e6e6e6" id="svg_12"/>
  <path stroke-width="2" stroke="#e6e6e6" d="m478.35045,185.27527l-22.26,0a2.60105,2.60105 0 0 0 -2.59985,2.6l0,22.27a2.59253,2.59253 0 0 0 2.59985,2.59l22.26,0a2.59907,2.59907 0 0 0 2.6001,-2.59l0,-22.27a2.60763,2.60763 0 0 0 -2.6001,-2.6z" fill="none" id="svg_14"/>
  <path stroke-width="2" stroke="#3badcb" d="m478.35045,223.22522l-22.26,0a2.60116,2.60116 0 0 0 -2.59985,2.6001l0,22.26a2.59464,2.59464 0 0 0 2.59985,2.59985l22.26,0a2.60116,2.60116 0 0 0 2.6001,-2.59985l0,-22.26a2.60774,2.60774 0 0 0 -2.6001,-2.6001z" fill="none" id="svg_15"/>
  <path stroke-width="2" stroke="#e6e6e6" d="m478.35045,261.17517l-22.26,0a2.60124,2.60124 0 0 0 -2.59985,2.6001l0,22.26a2.59474,2.59474 0 0 0 2.59985,2.6l22.26,0a2.60126,2.60126 0 0 0 2.6001,-2.6l0,-22.26a2.60782,2.60782 0 0 0 -2.6001,-2.6001z" fill="none" id="svg_16"/>
  <path stroke-width="2" stroke="#3badcb" d="m478.35045,300.12524l-22.26,0a2.59475,2.59475 0 0 0 -2.59985,2.6l0,22.26a2.59485,2.59485 0 0 0 2.59985,2.6001l22.26,0a2.60137,2.60137 0 0 0 2.6001,-2.6001l0,-22.26a2.60127,2.60127 0 0 0 -2.6001,-2.6z" fill="none" id="svg_17"/>
  <path stroke-width="2" stroke="#e6e6e6" d="m525.11045,223.22522l-22.26,0a2.60126,2.60126 0 0 0 -2.6,2.6001l0,22.26a2.59474,2.59474 0 0 0 2.6,2.59985l22.26,0a2.60116,2.60116 0 0 0 2.6001,-2.59985l0,-22.26a2.60774,2.60774 0 0 0 -2.6001,-2.6001z" fill="none" id="svg_20"/>
  <path stroke-width="2" stroke="#e6e6e6" d="m525.11045,261.17517l-22.26,0a2.60134,2.60134 0 0 0 -2.6,2.6001l0,22.26a2.59485,2.59485 0 0 0 2.6,2.6l22.26,0a2.60126,2.60126 0 0 0 2.6001,-2.6l0,-22.26a2.60782,2.60782 0 0 0 -2.6001,-2.6001z" fill="none" id="svg_21"/>
  <path stroke-width="2" stroke="#e6e6e6" d="m525.11045,300.12524l-22.26,0a2.59485,2.59485 0 0 0 -2.6,2.6l0,22.26a2.595,2.595 0 0 0 2.6,2.6001l22.26,0a2.60137,2.60137 0 0 0 2.6001,-2.6001l0,-22.26a2.60127,2.60127 0 0 0 -2.6001,-2.6z" fill="none" id="svg_22"/>
  <polygon points="293.8274459838867,628.3267288208008 293.2074508666992,628.3267288208008 293.7374496459961,628.256721496582 293.8274459838867,628.3267288208008 " fill="#2f2e41" id="svg_44"/>
  <circle id="b6132315-04e2-4cdb-a713-107c9cd58b0b" data-name="ab6171fa-7d69-4734-b81c-8dff60f9761b" cx="240.54682" cy="145.00847" r="68.32185" fill="#ffb6b6"/>
  <path id="f4304bdd-ba2d-4fff-b404-410205410c5d-103" data-name="bf427902-b9bf-4946-b5d7-5c1c7e04535e" d="m300.37839,94.91606s17.8694,-34.16091 -21.44383,-37.26649c0,0 -33.51489,-30.40228 -67.6758,-5.558c0,0 -18.63322,0 -28.82254,21.08567c0,0 -14.655,-5.558 -17.87551,9.31661c0,0 -10.72349,31.05546 0,59.00533c10.72348,27.94992 14.28537,31.05537 14.28537,31.05537s-17.6209,-58.59838 25.26991,-61.704s90.8867,-29.90942 94.46114,4.25144s8.95329,42.57784 8.95329,42.57784s33.94958,-48.78877 -7.15203,-62.76377z" fill="#2f2e41"/>
  <path d="m417.28045,313.38525l-0.2201,1.16l-2.47,13.04l-17.06994,90.2l-1.01,5.31006l-2.12,11.23l-2.8999,15.31994l-6.43018,33.95008l-1.83984,9.73l-0.69006,3.6499l-0.24,1.28l-1.91,10.07007l-0.58,3.03991l-4.66,34.53l-4.07007,30.09l13.62012,13.62l-8.12012,8.12l-5.32983,30.53l0.00989,0.07007l-217.52989,0q-13.20008,-8.55012 -26.02,-17.63013l1.79,-13.3999s6.15991,-23.93006 3.56982,-26.79c-2.57983,-2.86 -8.24,-7.97 -8.24,-7.97l7.13013,-16.64l0.99,-2.30993l-1.66,-34.43006l-0.03992,-0.83l-0.55,-11.3501l-0.07007,-1.46l-0.11,-2.18994l-2.11,-43.68006l-0.04,-0.72009l-0.63989,-13.24l-0.6001,-12.58984l-0.26,-5.31006l-2.56994,-53.13l-1.74,-36.07995l-1.52,-31.41l6.11,-2.06994l65.3501,-22.21009l27.06982,-35.19006l56.34009,0.42l27.58008,0.21009l46.0199,42.67993l10.47009,5l0.08,0.04l7.50988,3.59l19.04,9.09l20.13013,9.62012l10.32983,4.92993l0.21997,0.11005z" fill="#cacaca" id="svg_45"/>
  <path d="m226.8413,525.82658a30.28588,30.28588 0 0 1 -40.66389,-22.43l-106.55882,-15.11792l37.0428,-41.902l95.511,20.7803a30.45,30.45 0 0 1 14.66891,58.66964l0,-0.00002z" fill="#ffb6b6" id="svg_46"/>
  <path d="m179.33039,449.64526a13.52249,13.52249 0 0 0 -7.88989,-4.87l-43.72,-9.09009l-4.49,-0.92993a18.93267,18.93267 0 0 1 -12.53009,-9.07007a19.16055,19.16055 0 0 1 -2.45,-7.8999a18.89456,18.89456 0 0 1 0.89,-7.48l15.15,-45.65l9.82995,-29.62a41.79215,41.79215 0 0 0 2.09009,-11.05a43.34878,43.34878 0 0 0 -9.07007,-28.88989a42.69326,42.69326 0 0 0 -49.01,-13.64014c-0.25,0.09009 -0.51,0.19006 -0.76,0.29a42.58322,42.58322 0 0 0 -25.31,28.41l-10.68,38.85l-22.03,80.09009a57.7664,57.7664 0 0 0 48.96,72.67993l62.97,7.38l29.14,3.42a13.49651,13.49651 0 0 0 14.84,-10.73a4.89544,4.89544 0 0 0 0.11,-0.55005l0.7,-4.32007l5.93006,-36.37988l0.05993,-0.37012a13.47483,13.47483 0 0 0 -2.72998,-10.57988z" fill="#cacaca" id="svg_47"/>
  <path d="m294.71501,526.99282a30.28592,30.28592 0 0 0 37.09449,-27.9402l103.362,-29.99367l-42.58155,-36.25956l-91.62614,34.04148a30.45,30.45 0 0 0 -6.2488,60.152l0,-0.00005z" fill="#ffb6b6" id="svg_48"/>
  <path d="m486.49055,401.96521l-49.16016,-113.13989a42.819,42.819 0 0 0 -20.27,-21.3501a43.35617,43.35617 0 0 0 -8.7799,-3.2c-0.4701,-0.12 -0.94007,-0.23 -1.41,-0.32007a42.1319,42.1319 0 0 0 -19.48,0.36011a42.81378,42.81378 0 0 0 -27.34,21.73a1.00376,1.00376 0 0 0 -0.08,0.13989a43.10025,43.10025 0 0 0 -0.37012,38.8501l0.61011,1.22l34.74,69.77a18.90046,18.90046 0 0 1 -10.5,26.18994l-2.44006,0.88013l-43.88,15.84985a13.4969,13.4969 0 0 0 -8.33,16.79l0.11,0.3501l12.3,39.35986c0.05994,0.18005 0.11987,0.36011 0.18994,0.54a7.0543,7.0543 0 0 0 0.4,0.99a13.48177,13.48177 0 0 0 15.80993,7.53l23.68006,-6.25l4.82995,-1.28l61.15,-16.1499a57.76037,57.76037 0 0 0 38.22009,-78.86011l0.00016,0.00009z" fill="#cacaca" id="svg_49"/>
  <path d="m2.63045,496.97528a514.11633,514.11633 0 0 0 45.75,48.92l451.97,0a16.44588,16.44588 0 0 1 16.42,16.43l0.65,114.53a355.4301,355.4301 0 0 0 77.47,-48.53q9.84,-8.085 19.07,-16.87q6.045,-5.73 11.8,-11.74a355.62853,355.62853 0 0 0 68.82,-102.74l-691.95,0z" fill="#3f3d56" id="svg_50"/>
  <path d="m625.76045,599.71521q-5.74494,6.015 -11.79993,11.74l-96.21007,0l0,-11.74l108.01,0z" fill="#f2f2f2" id="svg_51"/>
  <path d="m416.38045,224.22522a5.53766,5.53766 0 0 0 -4.87,-2.8999l-327.84,0a5.55451,5.55451 0 0 0 -5.54,5.54992l0,196.2201l338.92992,0l0,-196.2201a5.38548,5.38548 0 0 0 -0.67992,-2.65002z" fill="#3f3d56" id="svg_52"/>
  <path d="m77.83358,417.78285l0,24.21381a7.64384,7.64384 0 0 0 7.64382,7.64392l125.09671,0l0,47.78659l-1.66185,0a0.9929,0.9929 0 0 0 -0.993,0.99292l0,3.32374a0.9929,0.9929 0 0 0 0.993,0.993l77.6584,0a0.99291,0.99291 0 0 0 0.993,-0.993l0,-3.32374a0.9929,0.9929 0 0 0 -0.993,-0.99292l-1.66185,0l0,-47.78659l125.09671,0a7.64384,7.64384 0 0 0 7.64382,-7.64392l0,-24.21381l-339.81576,0z" fill="#3f3d56" id="svg_53"/>
  <circle cx="243.63537" cy="316.97943" r="31.30642" fill="#3badcb" id="svg_54"/>
  <path d="m323.40045,141.27527l-5,0c0,-37.8 -37.41,-62.57 -75.15,-62.59a82.38227,82.38227 0 0 0 -16.35,1.59c-6.06,1.21 -12.35,2.66 -18.53,4.55c-24.37,7.47 -46.97,21.91 -46.97,56.45a78.591,78.591 0 0 0 2.54,19.88l-4.84,1.26a83.87572,83.87572 0 0 1 -2.7,-21.14c0,-30.18 12.39,-50.91 33.79,-63.27c11.25,-6.5 24.98,-10.69 40.71,-12.73a97.13079,97.13079 0 0 1 19.75,-0.6c43.4,3.11996 72.75,36.39998 72.75,76.6z" fill="#3badcb" id="svg_55"/>
  <path d="m331.73045,144.04523l-1.97,-14.56a15.71013,15.71013 0 0 0 -5,-9.56a15.81566,15.81566 0 0 0 -13.25,-4l-3.13,0.43a6.52426,6.52426 0 0 0 -4.35,2.53a6.548,6.548 0 0 0 -1.29,4.87l4.55,33.54a6.57712,6.57712 0 0 0 5.3,5.57a6.15442,6.15442 0 0 0 1.22,0.12a6.49883,6.49883 0 0 0 0.88,-0.06l3.5,-0.47a15.79135,15.79135 0 0 0 10.74,-6.43c0.27,-0.38 0.53,-0.77 0.77,-1.17005a16.7484,16.7484 0 0 0 2.03,-10.80995z" fill="#3badcb" id="svg_56"/>
  <path d="m306.36045,116.96527a6.4317,6.4317 0 0 0 -2.33,1.92a6.548,6.548 0 0 0 -1.29,4.87l4.55,33.54a6.57712,6.57712 0 0 0 5.3,5.57l-6.23,-45.9z" fill="#f2f2f2" id="svg_57"/>
  <path d="m331.73045,144.04523l-1.97,-14.56a15.71013,15.71013 0 0 0 -5,-9.56l4.53,33.37a6.17592,6.17592 0 0 0 0.41,1.56a16.7484,16.7484 0 0 0 2.03,-10.81z" fill="#3f3d56" id="svg_58"/>
  <ellipse transform="rotate(-7.72549 -246.973 -37.415)" cx="285.2461" cy="221.494" rx="2.5" ry="7" fill="#3f3d56" id="svg_59"/>
  <ellipse transform="rotate(-7.72549 -244.58 -37.9817)" cx="284.63855" cy="202.92735" rx="2.5" ry="7" fill="#3f3d56" id="svg_60"/>
  <ellipse transform="rotate(-7.72549 -245.349 -35.364)" cx="302.87002" cy="212.545" rx="2.5" ry="7" fill="#3f3d56" id="svg_61"/>
  <path d="m243.25045,78.68524a82.38227,82.38227 0 0 0 -16.35,1.59c-6.06,1.21 -12.35,2.66 -18.53,4.55c-9.65,-0.47 -16.75,-2.97 -18.18,-6.82c11.25,-6.5 24.98,-10.69 40.71,-12.73a97.13079,97.13079 0 0 1 19.75,-0.6a5.727,5.727 0 0 1 2.72,3.82c0.47,3.48004 -3.5,7.17999 -10.12,10.19z" fill="#3f3d56" id="svg_62"/>
  <path d="m179.41045,175.97528l-7.7,-32.01a6.02367,6.02367 0 0 0 -4.88,-4.55a6.73326,6.73326 0 0 0 -1,-0.08a6.02576,6.02576 0 0 0 -1.4,0.17l-2.98,0.72a14.904,14.904 0 0 0 -10.99,17.96l3.45,14.36a15.84509,15.84509 0 0 0 5.34,8.62005a14.045,14.045 0 0 0 1.36,0.97a14.80921,14.80921 0 0 0 11.37,1.84l2.97,-0.72a5.84014,5.84014 0 0 0 2.17,-1.01a5.99327,5.99327 0 0 0 2.29,-6.27005z" fill="#3badcb" id="svg_63"/>
  <ellipse transform="rotate(-13.5305 -270.719 -15.105)" cx="107.91075" cy="259.41819" rx="2.5" ry="7" fill="#3f3d56" id="svg_64"/>
  <ellipse transform="rotate(-13.5305 -271.698 -17.3614)" cx="96.93132" cy="260.16182" rx="2.5" ry="7" fill="#3f3d56" id="svg_65"/>
  <path d="m179.90045,175.85522l-7.7,-32.01a6.53174,6.53174 0 0 0 -5.29,-4.92l10.51,43.72a6.5111,6.5111 0 0 0 2.48,-6.79z" fill="#f2f2f2" id="svg_66"/>
  <path d="m152.20045,151.84527a6.476,6.476 0 0 0 -1.17,-2.45a14.72545,14.72545 0 0 0 -0.57,8.79l3.45,14.36a15.84509,15.84509 0 0 0 5.34,8.62005l-7.05,-29.32005z" fill="#3f3d56" id="svg_67"/>
  <path stroke-width="2" stroke="#e6e6e6" d="m339.11045,185.12524l-22.26,0a2.59485,2.59485 0 0 0 -2.6,2.6l0,22.26a2.595,2.595 0 0 0 2.6,2.6001l22.26,0a2.60137,2.60137 0 0 0 2.6001,-2.6001l0,-22.26a2.60127,2.60127 0 0 0 -2.6001,-2.6z" fill="none" id="svg_23"/>
  <path stroke-width="2" stroke="#3badcb" d="m384.83039,185.32532l-22.26,0a2.601,2.601 0 0 0 -2.59985,2.59985l0,22.27a2.59264,2.59264 0 0 0 2.59985,2.59009l22.26,0a2.59918,2.59918 0 0 0 2.6001,-2.59009l0,-22.27a2.60761,2.60761 0 0 0 -2.6001,-2.59985z" fill="none" id="svg_25"/>
  <path stroke-width="2" stroke="#e6e6e6" d="m431.59045,185.32532l-22.26,0a2.601,2.601 0 0 0 -2.59985,2.59985l0,22.27a2.59264,2.59264 0 0 0 2.59985,2.59009l22.26,0a2.59918,2.59918 0 0 0 2.6001,-2.59009l0,-22.27a2.60761,2.60761 0 0 0 -2.6001,-2.59985z" fill="none" id="svg_26"/>
 </g>

</svg>